<svg width="705" height="447" viewBox="0 0 705 447" fill="none" xmlns="http://www.w3.org/2000/svg">
<path d="M705 441.948H0V447H705V441.948Z" fill="#85848B"/>
<path d="M558.543 352.737C558.543 356.624 535.443 367.954 508.005 367.954C480.566 367.954 459.186 356.624 459.186 352.737C459.186 348.851 481.426 350.102 508.891 350.102C536.357 350.102 558.543 348.844 558.543 352.737Z" fill="#504F60"/>
<path opacity="0.2" d="M558.543 352.737C558.543 356.624 535.443 367.954 508.005 367.954C480.566 367.954 459.186 356.624 459.186 352.737" fill="black"/>
<path d="M282.214 281.424C286.667 281.984 291.288 282.34 295.554 280.983C296.225 280.779 296.964 280.324 296.897 279.666C296.849 279.426 296.746 279.201 296.595 279.007C294.987 276.642 293.636 274.119 292.565 271.478C292.522 271.34 292.435 271.22 292.316 271.135C292.177 271.086 292.025 271.086 291.886 271.135C289.918 271.642 288.219 272.887 286.264 273.421C285.267 273.689 284.227 273.765 283.201 273.645C282.314 273.546 281.105 272.828 280.299 272.92C280.756 275.799 281.871 278.487 282.214 281.424Z" fill="#3FB0AC"/>
<path d="M366.438 274.132C369.373 272.156 372.416 270.081 374.149 267.031C374.273 266.849 374.344 266.638 374.357 266.419C374.327 266.204 374.242 265.999 374.108 265.826C372.458 263.252 370.333 261.003 367.842 259.193C366.542 260.093 365.368 261.156 364.349 262.355C363.61 263.119 361.568 264.331 361.548 265.497C361.548 266.155 362.327 266.919 362.69 267.473C363.18 268.184 363.643 268.909 364.087 269.647C364.342 270.009 366.673 273.987 366.438 274.132Z" fill="#3FB0AC"/>
<path d="M299.671 290.245C299.723 290.923 299.533 291.599 299.134 292.155C298.82 292.464 298.432 292.691 298.005 292.814C291.779 295.001 284.571 292.274 278.358 294.428C277.082 294.869 275.873 295.508 274.59 295.929C273.06 296.38 271.482 296.654 269.888 296.746C267.692 296.95 265.482 297.082 263.278 297.141C261.604 297.258 259.922 297.113 258.294 296.713C257.48 296.509 256.719 296.139 256.061 295.627C255.402 295.115 254.861 294.473 254.472 293.742C254.135 293.088 254.067 292.33 254.284 291.628C254.382 291.387 254.52 291.164 254.694 290.969C255.115 290.506 255.61 290.112 256.158 289.803L258.449 288.354C259.523 287.609 260.69 287.003 261.922 286.549C262.828 286.259 263.789 286.134 264.709 285.891C267.927 284.968 270.385 282.465 272.669 280.061L275.785 276.8C276.077 276.441 276.446 276.151 276.867 275.95C277.299 275.809 277.759 275.766 278.21 275.825C281.238 276.037 284.161 276.998 286.707 278.618C287.358 279.097 288.061 279.503 288.803 279.83C290.63 280.529 292.974 280.002 294.66 279.119C295.459 278.697 295.285 278.46 295.621 277.709C295.957 276.958 296.776 276.477 297.488 277.163C297.703 277.399 297.855 277.684 297.931 277.992C298.603 280.166 298.348 282.505 298.348 284.784C298.328 285.14 298.374 285.497 298.482 285.838C298.654 286.181 298.858 286.508 299.093 286.813C299.141 286.893 299.184 286.977 299.221 287.063C299.632 288.072 299.786 289.164 299.671 290.245Z" fill="#514E7F"/>
<path d="M299.671 290.245C299.723 290.923 299.533 291.599 299.134 292.155C298.82 292.464 298.432 292.691 298.005 292.814C291.779 295.001 284.571 292.274 278.358 294.428C277.082 294.869 275.873 295.508 274.59 295.929C273.06 296.38 271.482 296.654 269.888 296.746C267.692 296.95 265.482 297.082 263.278 297.141C261.604 297.258 259.922 297.113 258.294 296.713C257.48 296.509 256.719 296.139 256.061 295.627C255.402 295.115 254.861 294.473 254.472 293.742C254.135 293.088 254.067 292.33 254.284 291.628C254.382 291.387 254.52 291.164 254.694 290.969C255.057 291.714 255.319 292.702 255.547 293.057C255.856 293.585 256.275 294.041 256.778 294.397C257.281 294.752 257.855 294.999 258.462 295.119C259.372 295.174 260.283 295.06 261.149 294.783C266.791 293.413 272.79 293.393 278.21 291.318C280.071 290.6 281.844 289.645 283.799 289.21C285.753 288.776 287.829 288.894 289.844 288.73C293.028 288.479 296.111 287.537 299.248 287.043C299.653 288.061 299.798 289.16 299.671 290.245Z" fill="#464353"/>
<path d="M380.698 273.731C380.402 276.049 378.904 278.045 377.259 279.738C375.613 281.431 373.753 282.953 372.443 284.902C370.831 287.32 370.105 290.317 368.01 292.359C367.205 293.102 366.301 293.733 365.323 294.236C364.227 294.871 363.068 295.394 361.863 295.798C358.733 296.779 355.361 296.555 352.09 296.318C351.028 296.308 349.977 296.109 348.987 295.732C348.536 295.507 348.105 295.247 347.697 294.955C346.877 294.459 346.187 293.782 345.682 292.978C345.434 292.541 345.365 292.028 345.487 291.542C345.674 291.007 345.995 290.527 346.421 290.146C347.157 289.395 347.947 288.697 348.785 288.058C349.935 287.33 350.972 286.442 351.862 285.423C352.408 284.617 352.81 283.726 353.051 282.788C353.527 281.144 353.817 279.455 353.917 277.749C353.914 276.615 354.033 275.485 354.273 274.376C354.77 272.637 356.087 271.083 355.939 269.284C355.879 269.027 355.903 268.757 356.006 268.514C356.163 268.323 356.381 268.191 356.624 268.138C357.651 267.737 358.733 267.49 359.835 267.407C360.388 267.37 360.942 267.453 361.458 267.651C361.973 267.849 362.438 268.157 362.817 268.553C363.274 269.093 363.576 269.87 364.248 270.081C364.581 270.17 364.93 270.184 365.269 270.121C366.921 269.956 368.668 269.752 369.971 268.705C370.573 268.175 371.057 267.529 371.392 266.806C371.728 266.084 371.907 265.302 371.919 264.509C371.919 263.909 371.643 263.283 372.59 263.191C373.302 263.099 373.867 263.85 374.229 264.311C375.539 266.03 376.883 267.828 377.373 269.923C377.564 269.851 377.766 269.813 377.971 269.811C378.39 269.808 378.803 269.903 379.176 270.09C379.55 270.277 379.871 270.55 380.113 270.885C380.648 271.735 380.856 272.744 380.698 273.731Z" fill="#514E7F"/>
<path d="M380.698 273.731C380.402 276.049 378.904 278.045 377.259 279.738C375.613 281.431 373.752 282.953 372.443 284.902C370.831 287.32 370.105 290.317 368.009 292.359C367.205 293.102 366.301 293.733 365.323 294.237C364.227 294.871 363.068 295.394 361.863 295.798C358.733 296.779 355.361 296.555 352.09 296.318C351.028 296.308 349.977 296.109 348.987 295.732C348.536 295.507 348.105 295.247 347.697 294.955C346.877 294.459 346.187 293.783 345.682 292.978C346.312 292.681 346.999 292.52 347.697 292.504C349.148 292.583 350.209 293.927 351.6 294.342C353.581 294.928 355.556 293.558 357.565 293.09C358.874 292.787 360.251 292.866 361.548 292.432C362.628 292.022 363.626 291.429 364.496 290.679C365.689 289.843 366.751 288.84 367.647 287.702C368.391 286.564 369.01 285.352 369.494 284.086C370.555 281.659 371.803 279.316 373.229 277.077C373.439 276.722 373.694 276.395 373.988 276.102C374.303 275.819 374.659 275.621 375.015 275.371C376.359 274.376 376.916 272.736 377.386 271.129C377.514 270.64 377.692 270.166 377.917 269.712C378.336 269.709 378.75 269.805 379.123 269.992C379.496 270.178 379.817 270.451 380.06 270.786C380.638 271.656 380.865 272.705 380.698 273.731Z" fill="#464353"/>
<path d="M239.85 68.3552C241.522 69.5839 242.897 71.1581 243.88 72.9663C244.82 74.7712 250.241 88.7755 249.925 90.811C251.692 89.0653 258.657 88.7821 260.444 87.0365C261.19 86.3053 265.213 82.656 265.818 81.8063C266.422 80.9565 270.909 79.1714 271.399 78.2755C273.233 75.0544 258.395 62.8483 260.296 59.6667C260.401 59.5205 260.456 59.345 260.451 59.1661C260.407 59.0159 260.321 58.8811 260.202 58.7775C258.986 57.5588 257.374 56.8013 255.91 55.8989C254.446 54.9964 253.035 53.7383 252.639 52.0783C251.242 52.7087 249.96 53.5586 248.844 54.5946C246.121 56.8826 243.446 59.2166 240.817 61.5968C239.789 62.5322 237.801 63.7771 237.324 65.1143C236.76 66.5503 238.869 67.5714 239.85 68.3552Z" fill="#A1616A"/>
<path d="M263.87 63.1711C261.593 64.6714 259.466 66.3784 257.515 68.2696C255.675 70.0547 253.928 72.1231 253.485 74.6197C253.297 75.6011 253.324 76.5958 253.169 77.5905C252.498 81.9051 248.696 85.0669 247.017 89.1049C246.53 90.3512 246.172 91.6421 245.949 92.9584C245.477 95.4536 245.218 97.9831 245.176 100.52C245.136 102.977 247.594 104.67 248.494 106.963C249.394 109.255 249.636 111.613 250.093 113.965C250.953 118.405 252.531 122.686 254.123 126.942C257.435 135.913 268.168 160.714 271.48 169.693C281.629 167.196 308.645 161.459 317.632 156.195C320.628 154.443 296.843 134.675 300.047 133.311C300.23 133.284 300.404 133.214 300.555 133.109C300.707 133.004 300.831 132.865 300.918 132.705C301.005 132.545 301.053 132.367 301.058 132.185C301.064 132.003 301.025 131.823 300.947 131.658C297.743 117.917 287.722 106.627 283.174 93.2482C281.596 88.6043 278.761 84.6388 276.612 80.2254C274.664 76.2269 273.623 71.8069 271.292 68.0061C270.852 67.2231 270.277 66.5209 269.592 65.9312C269.011 65.494 268.383 65.1207 267.718 64.8179C266.388 64.1856 265.152 63.8101 263.87 63.1711Z" fill="#514E7F"/>
<path d="M240.387 66.7941C249.16 66.7941 256.273 59.8193 256.273 51.2154C256.273 42.6115 249.16 35.6367 240.387 35.6367C231.614 35.6367 224.501 42.6115 224.501 51.2154C224.501 59.8193 231.614 66.7941 240.387 66.7941Z" fill="#A1616A"/>
<path d="M256.548 58.5337C257.34 57.8176 258.334 57.3537 259.4 57.2032C260.466 57.0527 261.554 57.2226 262.519 57.6906C263.594 58.2373 264.535 59.344 264.293 60.5033L272.172 60.6219C273.426 60.5882 274.68 60.701 275.906 60.9578C277.141 61.2215 278.243 61.8994 279.023 62.8747C279.117 62.9999 279.225 63.1514 279.386 63.1711C279.517 63.1731 279.645 63.1313 279.749 63.0526C280.961 62.4564 282.326 62.2271 283.671 62.3938C287.93 62.6639 291.866 64.7521 295.204 67.3606C295.806 67.7664 296.273 68.3368 296.548 69.0008C296.823 69.8769 296.494 70.9769 297.219 71.6027C297.219 78.8486 299.758 85.6203 301.451 92.6817C301.753 93.9399 302.983 95.0531 303.836 96.0412C304.89 97.1366 305.75 98.3967 306.381 99.7696C307.819 103.432 305.837 107.74 307.234 111.416C307.825 112.97 308.967 114.248 309.921 115.599C311.178 117.158 311.973 119.027 312.218 121C312.279 121.883 312.165 122.772 312.218 123.635C312.309 124.822 312.534 125.995 312.89 127.133C313.463 129.258 314.063 131.381 314.69 133.503C315.711 136.928 317.041 140.623 320.171 142.448C312.615 143.706 304.648 144.938 297.448 142.362C296.443 142.026 295.49 141.559 294.613 140.972C292.014 139.154 290.758 136.045 289.636 133.107C288.387 129.814 287.117 126.461 286.862 122.956C286.864 121.842 286.704 120.733 286.385 119.663C285.653 117.753 283.698 116.6 281.925 115.539C279.922 114.463 278.108 113.08 276.551 111.442C275.779 110.617 275.187 109.645 274.813 108.587C274.438 107.529 274.289 106.407 274.375 105.29C274.509 104.203 274.946 103.155 274.986 102.062C275.026 100.968 274.529 99.7169 273.461 99.427C267.96 97.7934 265.334 91.4038 264.111 85.8969C263.584 83.0507 263.348 80.16 263.406 77.2677L263.332 71.6488C262.573 70.9715 261.962 70.1498 261.537 69.2336C261.113 68.3175 260.882 67.3261 260.86 66.3198C260.933 65.7327 260.922 65.1385 260.827 64.5544C260.561 63.8406 260.129 63.1976 259.564 62.6771C258.349 61.4547 257.332 60.0574 256.548 58.5337Z" fill="#464353"/>
<path d="M239.628 76.3455C239.447 78.0845 239.85 79.8697 239.453 81.5757C239.299 82.2345 239.03 82.8932 238.835 83.5058C238.24 85.9614 238.498 88.5417 239.568 90.8373C240.636 93.1104 241.915 95.2823 243.39 97.3257C243.888 98.0233 244.299 98.7775 244.612 99.5719C244.866 100.406 245.024 101.266 245.082 102.134C245.471 105.623 246.095 109.082 246.95 112.489C247.702 115.44 256.246 140.669 258.234 143.008C258.595 143.526 259.142 143.89 259.766 144.029C260.215 144.045 260.662 143.955 261.069 143.765L265.099 142.25C265.442 142.147 265.759 141.977 266.032 141.75C266.41 141.317 266.615 140.765 266.61 140.195C266.899 136.981 258.335 111.574 257.247 108.537C253.955 99.3677 249.576 90.5277 247.433 81.0356C246.835 78.4007 246.52 74.343 244.552 72.2417C243.739 71.3722 244.014 71.7411 243.04 72.1956C242.548 72.405 242.072 72.6494 241.616 72.9268C241.046 73.3154 240.572 73.8241 240.228 74.4156C239.884 75.0071 239.679 75.6664 239.628 76.3455Z" fill="#464353"/>
<path d="M251.86 93.7423C252.941 99.348 254.056 104.94 255.164 110.546L270.936 106.495C271.063 104.875 270.184 103.373 269.592 101.884C268.155 98.3467 268.121 94.4076 266.959 90.7715C266.079 88.0048 264.548 85.4622 263.722 82.6758C263.245 81.0554 263.003 79.3822 262.533 77.742C262.029 76.1313 261.409 74.5574 260.679 73.0322C259.794 70.8201 258.639 68.7211 257.24 66.7809C255.225 67.5187 253.075 68.375 251.927 70.1601C251.338 71.166 251.001 72.295 250.946 73.4537C250.671 76.9252 251.954 80.4164 251.53 83.8681C251.095 87.1553 251.206 90.49 251.86 93.7423Z" fill="#3FB0AC"/>
<path d="M271.198 168.309C272.084 171.603 270.801 175.068 269.754 178.328C268.176 183.24 267.1 188.293 266.543 193.413C266.475 194.716 266.207 196.002 265.75 197.227C265.253 198.327 264.407 199.256 263.829 200.303C262.244 203.057 262.284 206.416 262.627 209.565C262.855 211.64 263.198 213.708 263.621 215.75C264.138 218.247 264.776 220.855 264.031 223.292C265.28 223.022 266.126 224.61 266.046 225.855C265.965 227.1 265.556 228.49 266.167 229.563C267.712 230.117 267.725 232.198 267.678 233.812C267.704 236.611 268.064 239.396 268.753 242.112C271.09 253.135 273.571 264.126 276.195 275.088C281.871 276.813 288.501 278.612 293.915 276.221C294.922 275.779 295.93 275.074 296.158 274.007C296.217 273.432 296.144 272.851 295.943 272.308L293.377 263.152C292.753 260.938 292.128 258.653 292.457 256.38C292.706 254.687 293.458 252.862 292.612 251.367C292.323 250.853 291.866 250.451 291.53 249.964C290.187 248.034 290.892 245.452 290.999 243.113C291.041 242.588 291.005 242.06 290.892 241.546C290.708 240.944 290.451 240.367 290.126 239.826C288.006 235.789 286.987 231.282 287.171 226.744C287.251 226.165 287.17 225.575 286.936 225.038C286.773 224.816 286.627 224.583 286.499 224.34C286.399 223.917 286.449 223.473 286.64 223.082C285.87 222.509 285.175 221.845 284.571 221.106C284.944 220.878 285.259 220.571 285.493 220.207C285.726 219.843 285.873 219.432 285.921 219.004C285.969 218.577 285.917 218.144 285.769 217.739C285.621 217.334 285.382 216.967 285.068 216.666C285.342 216.612 285.596 216.484 285.8 216.297C286.005 216.111 286.152 215.872 286.227 215.608C286.301 215.344 286.299 215.064 286.222 214.801C286.144 214.538 285.994 214.301 285.787 214.117C285.458 213.893 285.021 213.794 284.786 213.458C284.424 212.97 284.719 212.292 285.015 211.771L286.58 208.998C287.748 206.937 288.01 204.387 289.266 202.411C291.067 199.533 292.242 196.325 293.404 193.15L297.925 180.917L300.967 183.506C301.981 184.265 302.83 185.215 303.466 186.299C303.899 187.37 304.172 188.497 304.279 189.645C305.394 196.285 309.652 202.042 311.231 208.583C311.58 210.039 311.815 211.567 312.668 212.812C312.974 213.194 313.248 213.6 313.488 214.024C313.71 214.672 313.826 215.35 313.83 216.033C313.971 217.371 314.404 218.664 315.1 219.823C315.795 220.983 316.737 221.982 317.861 222.752C319.358 223.76 321.219 224.452 322.032 226.046C322.194 226.54 322.42 227.011 322.704 227.449C323.429 228.305 324.994 228.404 325.303 229.478C325.478 230.077 325.155 230.795 325.498 231.322C325.692 231.566 325.95 231.755 326.243 231.869L330.616 234.01C335.506 236.408 338.005 241.914 341.612 245.926C342.857 247.233 343.961 248.663 344.903 250.195C346.461 252.928 347.18 256.36 349.813 258.099C350.521 258.459 351.165 258.928 351.721 259.489C352.547 260.556 352.245 262.052 352.319 263.395C352.393 264.739 353.44 266.34 354.744 265.931C354.287 267.559 354.287 269.277 354.744 270.905C360.464 270.616 365.92 268.449 370.233 264.752C371.509 263.659 372.738 262.262 372.752 260.602C372.771 260.316 372.706 260.03 372.564 259.779C372.305 259.455 371.965 259.203 371.576 259.048C367.486 256.874 366.256 251.835 364.188 247.744C362.381 244.134 359.707 241.025 357.471 237.672C352.608 230.459 349.289 221.731 341.934 216.969C340.315 215.921 338.435 214.993 337.622 213.26C337.172 212.292 337.118 211.185 336.762 210.184C336.406 209.183 335.553 208.208 334.465 208.208C335.069 206.759 334.949 204.993 334.989 203.426C335.03 202.73 334.948 202.032 334.747 201.364C334.468 200.645 334.105 199.959 333.666 199.322C331.747 196.135 330.787 192.481 330.898 188.782C330.952 186.879 331.295 184.916 330.71 183.097C330.415 182.182 329.897 181.345 329.541 180.463C329.005 178.863 328.722 177.193 328.702 175.509L328.299 169.179C328.238 167.071 327.959 164.974 327.466 162.921C326.122 158.007 324.779 137.422 320.178 135.103C315.577 132.785 307.671 148.627 302.492 148.936C300.201 149.03 297.937 149.458 295.775 150.208C292.329 151.472 289.441 153.831 286.627 156.136L277.102 163.981C275.087 165.608 273.421 167.163 271.198 168.309Z" fill="#464353"/>
<path d="M225.482 33.9174C227.578 31.1113 231.178 29.6226 234.725 29.4974C238.271 29.3723 241.764 30.4657 244.941 32.0137C245.879 32.5367 246.881 32.9396 247.923 33.2126C249.603 33.5485 251.47 33.1006 252.988 33.8713C255.003 34.9187 255.393 37.5865 255.218 39.7998C255.043 42.0131 254.62 44.4701 255.823 46.387C256.249 46.9336 256.637 47.508 256.985 48.1062C257.502 49.2458 257.2 50.5633 256.891 51.7687C256.105 51.11 255.661 50.1153 254.963 49.3512C254.264 48.5871 253.048 48.0733 252.182 48.6464C251.316 49.2195 251.329 50.2602 251.282 51.1956C251.235 52.131 250.993 53.2508 250.093 53.5538C249.717 53.6377 249.324 53.6091 248.965 53.4717C248.606 53.3344 248.297 53.0945 248.078 52.7831C246.54 50.9387 247.158 47.9942 245.633 46.1367C244.766 45.0827 243.322 44.5689 242.523 43.4623C241.892 42.5928 241.73 41.4861 241.18 40.5507C240.629 39.6153 239.346 38.9303 238.493 39.5758C238.202 39.8486 237.959 40.1669 237.774 40.5178C237.242 41.265 236.469 41.8145 235.579 42.0774C234.689 42.3404 233.735 42.3015 232.871 41.967C232.21 41.5693 231.496 41.2655 230.748 41.0645C230.259 41.0405 229.773 41.1511 229.344 41.3839C228.916 41.6168 228.562 41.9625 228.323 42.382C227.841 43.2201 227.609 44.174 227.652 45.1354C227.652 46.4528 227.893 47.8559 227.128 48.9099C226.837 49.3066 226.472 49.6463 226.053 49.9111C224.931 50.6159 223.366 51.0902 222.332 50.2866C221.981 49.9663 221.72 49.5631 221.575 49.1155C221.429 48.6679 221.403 48.1911 221.499 47.7308C221.7 46.8139 221.965 45.9116 222.291 45.03C222.883 42.988 222.11 40.6891 222.755 38.7656C223.43 37.0334 224.348 35.4017 225.482 33.9174Z" fill="#464353"/>
<path d="M233.992 80.3901C233.892 80.8701 233.943 81.369 234.14 81.8195C234.34 82.1262 234.612 82.3815 234.933 82.5638C237.192 83.9438 239.761 84.7602 242.416 84.9418C242.777 84.9479 243.131 85.0382 243.45 85.2053C244.081 85.6137 244.122 86.5227 243.887 87.2473C243.573 87.9308 243.411 88.6716 243.41 89.4211C243.604 90.7978 245.27 91.3972 246.674 91.6015C248.642 91.8452 250.798 91.72 252.357 90.5146C253.412 89.5704 254.217 88.3878 254.701 87.0695C258.556 78.381 259.907 68.7768 263.809 60.1147C264.105 59.5491 264.302 58.9391 264.393 58.3098C264.435 57.9948 264.389 57.6747 264.262 57.3828C264.134 57.0909 263.929 56.8378 263.668 56.6498C262.943 56.2085 261.814 56.4588 261.324 55.7671C261.082 55.418 261.109 54.9437 260.894 54.5749C260.444 53.791 259.262 53.9161 258.456 53.4616C257.824 53.1323 257.388 52.4538 256.682 52.322C256.336 52.3029 255.99 52.3631 255.672 52.4981C255.353 52.633 255.072 52.8389 254.849 53.0993C252.558 55.194 251.356 58.1649 250.08 60.971C248.131 65.2724 245.849 69.4213 243.255 73.3813C243.557 72.9202 241.804 69.429 241.119 69.2775C239.917 69.0403 238.379 71.1087 237.727 71.8794C235.682 74.3104 234.387 77.2627 233.992 80.3901Z" fill="#3FB0AC"/>
<path opacity="0.1" d="M258.395 54.0742C257.913 54.0821 257.438 54.1963 257.007 54.4084C256.576 54.6205 256.198 54.925 255.903 55.2994C255.185 56.2151 255.043 57.4271 254.862 58.593C254.251 62.2869 252.907 65.8274 250.906 69.014" fill="black"/>
<path opacity="0.1" d="M261.821 56.7025C261.155 56.7171 260.504 56.9015 259.933 57.2376C259.362 57.5737 258.89 58.0499 258.563 58.6194C258.119 59.6555 257.842 60.7535 257.744 61.8735C257.168 64.3565 256.057 66.6901 254.486 68.7175" fill="black"/>
<path d="M421.456 185.482V177.301C421.455 171.278 419.014 165.503 414.671 161.245C410.327 156.987 404.438 154.595 398.296 154.595H68.8355C62.6943 154.595 56.8044 156.987 52.4612 161.245C48.1181 165.503 45.6772 171.278 45.6754 177.301V192.385L421.456 185.482Z" fill="#33323D"/>
<path d="M160.489 145.004C160.489 145.004 159.548 202.22 169.892 221.046C180.237 239.872 184.67 321.771 184.67 321.771C184.67 321.771 293.109 332.772 368.674 308.597C444.24 284.422 605.031 274.534 605.031 274.534L577.935 95.4352C577.935 95.4352 444.073 87.0167 367.922 122.634C291.772 158.251 160.489 145.004 160.489 145.004Z" fill="#8DD070"/>
<path opacity="0.1" d="M160.489 145.004C160.489 145.004 159.548 202.22 169.892 221.046C180.237 239.872 184.67 321.771 184.67 321.771C184.67 321.771 293.109 332.772 368.674 308.597C444.24 284.422 605.031 274.534 605.031 274.534L577.935 95.4352C577.935 95.4352 444.073 87.0167 367.922 122.634C291.772 158.251 160.489 145.004 160.489 145.004Z" fill="black"/>
<path d="M184.488 165.905C184.488 165.905 181.096 213.115 189.607 228.2C198.117 243.285 198.513 310.625 198.513 310.625C198.513 310.625 296.104 315.065 365.524 291.891C434.944 268.718 580.823 253.686 580.823 253.686L564.246 107.22C564.246 107.22 443.542 106.001 373.094 138.621C302.647 171.241 184.488 165.905 184.488 165.905Z" fill="#8DD070"/>
<path opacity="0.1" d="M372.022 265.075C385.908 263.379 394.157 238.328 390.448 209.122C386.738 179.916 372.475 157.615 358.589 159.311C344.704 161.007 336.454 186.058 340.164 215.264C343.873 244.47 358.137 266.771 372.022 265.075Z" fill="black"/>
<path opacity="0.2" d="M504.545 8.18787C504.545 8.18787 374.498 40.4651 313.172 97.2796C251.846 154.094 122.746 180.996 122.746 180.996C122.746 180.996 139.753 235.729 155.484 250.537C171.216 265.345 201.052 341.967 201.052 341.967C201.052 341.967 307.698 319.795 372.046 274.027C436.395 228.259 586.365 170.457 586.365 170.457L504.545 8.18787Z" fill="black"/>
<path d="M120.791 172.802C120.791 172.802 137.792 227.541 153.51 242.349C169.227 257.157 199.078 333.773 199.078 333.773C199.078 333.773 305.736 311.607 370.092 265.839C434.447 220.071 584.404 162.289 584.404 162.289L502.584 0C502.584 0 372.543 32.2772 311.217 89.0917C249.892 145.906 120.791 172.802 120.791 172.802Z" fill="#8DD070"/>
<path opacity="0.1" d="M120.791 172.802C120.791 172.802 137.792 227.541 153.51 242.349C169.227 257.157 199.078 333.773 199.078 333.773C199.078 333.773 305.736 311.607 370.092 265.839C434.447 220.071 584.404 162.289 584.404 162.289L502.584 0C502.584 0 372.543 32.2772 311.217 89.0917C249.892 145.906 120.791 172.802 120.791 172.802Z" fill="black"/>
<path d="M150.151 185.475C150.151 185.475 161.698 231.434 174.52 243.225C187.343 255.016 208.777 318.978 208.777 318.978C208.777 318.978 303.043 293.828 361.864 250.88C420.684 207.931 554.835 149.786 554.835 149.786L493.234 15.3284C493.234 15.3284 377.978 50.4842 321.132 102.734C264.286 154.983 150.151 185.475 150.151 185.475Z" fill="#8DD070"/>
<path opacity="0.1" d="M359.689 223.423C372.374 217.63 372.387 191.305 359.718 164.625C347.049 137.945 326.495 121.012 313.81 126.805C301.125 132.598 301.112 158.922 313.781 185.603C326.45 212.283 347.004 229.216 359.689 223.423Z" fill="black"/>
<path opacity="0.1" d="M430.35 193.512V420.77C430.35 423.351 429.831 425.906 428.824 428.291C427.817 430.675 426.34 432.842 424.479 434.666C422.617 436.491 420.408 437.938 417.976 438.925C415.544 439.913 412.938 440.42 410.306 440.419H65.7256C60.4127 440.418 55.318 438.347 51.5618 434.662C47.8056 430.977 45.6956 425.98 45.6956 420.77V170.602C55.5695 174.198 55.5695 174.198 65.7256 173.895H410.306C415.615 173.895 420.707 175.961 424.465 179.638C428.223 183.316 430.339 188.306 430.35 193.512Z" fill="black"/>
<path d="M430.35 196.404V423.662C430.348 428.874 428.235 433.871 424.477 437.556C420.718 441.241 415.621 443.311 410.306 443.311H65.7256C60.4127 443.309 55.318 441.238 51.5618 437.554C47.8056 433.869 45.6956 428.872 45.6956 423.662V173.487C55.5695 177.077 55.5695 177.077 65.7256 176.78H410.306C415.616 176.78 420.709 178.847 424.467 182.526C428.225 186.205 430.341 191.196 430.35 196.404Z" fill="#504F60"/>
<path opacity="0.1" d="M429.369 280.423V353.1H357.497C347.757 352.971 338.459 349.086 331.617 342.285C324.775 335.484 320.939 326.315 320.939 316.761C320.939 307.208 324.775 298.038 331.617 291.238C338.459 284.437 347.757 280.552 357.497 280.423H429.369Z" fill="black"/>
<path d="M430.35 278.487V351.176H358.478C348.737 351.048 339.44 347.162 332.598 340.362C325.756 333.561 321.919 324.392 321.919 314.838C321.919 305.284 325.756 296.115 332.598 289.314C339.44 282.513 348.737 278.628 358.478 278.5L430.35 278.487Z" fill="#33323D"/>
<path opacity="0.1" d="M361.924 330.934C369.903 330.934 376.372 324.59 376.372 316.765C376.372 308.939 369.903 302.596 361.924 302.596C353.944 302.596 347.476 308.939 347.476 316.765C347.476 324.59 353.944 330.934 361.924 330.934Z" fill="black"/>
<path d="M362.905 329.01C370.884 329.01 377.353 322.667 377.353 314.841C377.353 307.016 370.884 300.672 362.905 300.672C354.925 300.672 348.456 307.016 348.456 314.841C348.456 322.667 354.925 329.01 362.905 329.01Z" fill="#3FB0AC"/>
<path d="M555.104 277.861C555.675 283.928 550.993 289.816 552.357 295.758C552.652 297.029 553.21 298.228 553.411 299.513C553.976 303.044 551.833 306.383 549.784 309.334L532.186 334.656C531.481 335.769 530.637 336.791 529.674 337.699C526.315 340.637 521.264 340.334 516.844 341.21C513.737 341.828 510.804 343.1 508.246 344.938C508.139 345.028 508.072 345.154 508.057 345.291C508.042 345.428 508.081 345.566 508.166 345.676C508.896 346.651 509.864 347.432 510.981 347.946C512.098 348.46 513.329 348.692 514.56 348.62C515.024 349.22 514.56 350.096 513.889 350.524C512.942 351.183 511.645 351.341 511.457 352.909C511.39 353.456 511.503 354.01 511.78 354.49C512.489 355.554 513.592 356.308 514.856 356.591C520.948 358.416 527.531 355.208 532.092 350.84C536.652 346.473 539.924 340.959 544.397 336.513C546.876 334.056 549.69 331.948 552.243 329.564C557.334 324.808 561.29 319.024 565.112 313.234C566.261 311.488 567.416 309.697 567.9 307.674C568.383 305.652 568.155 303.61 568.699 301.654C569.411 299.085 571.326 297.043 572.917 294.889C576.041 290.673 578.123 285.515 577.713 280.324C577.304 275.134 574.019 270.002 569.022 268.237C567.473 267.627 565.764 267.525 564.152 267.947C562.103 268.566 560.592 270.226 559.195 271.814L555.836 275.601C554.999 276.432 554.337 277.417 553.888 278.5C553.673 279.043 553.622 279.636 553.741 280.207C553.86 280.778 554.145 281.304 554.56 281.721" fill="#FBBEBE"/>
<path opacity="0.05" d="M555.104 277.861C555.675 283.928 550.993 289.816 552.357 295.758C552.652 297.029 553.21 298.228 553.411 299.513C553.976 303.044 551.833 306.383 549.784 309.334L532.186 334.656C531.481 335.769 530.637 336.791 529.674 337.699C526.315 340.637 521.264 340.334 516.844 341.21C513.737 341.828 510.804 343.1 508.246 344.938C508.139 345.028 508.072 345.154 508.057 345.291C508.042 345.428 508.081 345.566 508.166 345.676C508.896 346.651 509.864 347.432 510.981 347.946C512.098 348.46 513.329 348.692 514.56 348.62C515.024 349.22 514.56 350.096 513.889 350.524C512.942 351.183 511.645 351.341 511.457 352.909C511.39 353.456 511.503 354.01 511.78 354.49C512.489 355.554 513.592 356.308 514.856 356.591C520.948 358.416 527.531 355.208 532.092 350.84C536.652 346.473 539.924 340.959 544.397 336.513C546.876 334.056 549.69 331.948 552.243 329.564C557.334 324.808 561.29 319.024 565.112 313.234C566.261 311.488 567.416 309.697 567.9 307.674C568.383 305.652 568.155 303.61 568.699 301.654C569.411 299.085 571.326 297.043 572.917 294.889C576.041 290.673 578.123 285.515 577.713 280.324C577.304 275.134 574.019 270.002 569.022 268.237C567.473 267.627 565.764 267.525 564.152 267.947C562.103 268.566 560.592 270.226 559.195 271.814L555.836 275.601C554.999 276.432 554.337 277.417 553.888 278.5C553.673 279.043 553.622 279.636 553.741 280.207C553.86 280.778 554.145 281.304 554.56 281.721" fill="black"/>
<path d="M568.424 434.043C564.582 436.342 559.793 436.48 555.326 435.947C554.607 435.861 553.754 435.808 553.311 436.355C552.639 437.146 553.432 438.331 554.251 438.944C556.886 440.884 559.981 442.133 563.245 442.573C566.16 442.979 569.101 443.17 572.044 443.146C580.105 443.285 588.165 443.417 596.098 442.284C596.568 442.249 597.025 442.119 597.441 441.902C597.953 441.549 598.308 441.019 598.435 440.419C598.979 438.391 597.932 436.217 596.346 434.807C594.761 433.397 592.726 432.614 590.738 431.856L583.752 429.188C582.113 428.563 579.487 426.903 577.707 427.034C574.362 427.271 571.198 432.449 568.424 434.043Z" fill="#3F3D56"/>
<path opacity="0.05" d="M568.424 434.043C564.582 436.342 559.793 436.48 555.326 435.947C554.607 435.861 553.754 435.808 553.311 436.355C552.639 437.146 553.432 438.331 554.251 438.944C556.886 440.884 559.981 442.133 563.245 442.573C566.16 442.979 569.101 443.17 572.044 443.146C580.105 443.285 588.165 443.417 596.098 442.284C596.568 442.249 597.025 442.119 597.441 441.902C597.953 441.549 598.308 441.019 598.435 440.419C598.979 438.391 597.932 436.217 596.346 434.807C594.761 433.397 592.726 432.614 590.738 431.856L583.752 429.188C582.113 428.563 579.487 426.903 577.707 427.034C574.362 427.271 571.198 432.449 568.424 434.043Z" fill="black"/>
<path d="M573.32 343.1C570.412 346.894 567.403 351.275 568.122 355.972C568.511 358.501 569.955 360.734 571.017 363.073C572.454 366.248 573.206 369.66 573.945 373.059C575.033 378.026 576.128 383.005 576.793 388.051C577.552 393.749 573.985 410.237 573.656 415.974C573.576 417.358 573.408 418.853 572.427 419.848C572.044 420.243 571.534 420.559 571.359 421.073C571.257 421.568 571.34 422.083 571.594 422.522C573.233 426.145 576.585 428.846 580.326 430.387C584.068 431.928 593.089 434.59 597.166 434.728C597.703 434.786 598.247 434.716 598.751 434.524C599.293 434.199 599.72 433.719 599.973 433.147C602.895 427.667 600.088 408.182 600.128 401.996C600.168 396.839 601.411 391.714 601.182 386.563C600.994 382.426 599.839 378.381 599.456 374.258C598.785 367.499 600.047 360.708 601.317 354.028C602.284 348.904 603.258 343.779 604.501 338.72C605.26 335.63 606.14 332.515 607.859 329.834C609.203 327.706 611.09 325.927 612.655 323.905C616.999 318.32 618.929 311.284 618.029 304.315C617.935 303.656 607.953 306.798 607.073 307.174C603.483 308.665 600.18 310.748 597.307 313.333C594.996 315.493 593.176 318.379 591.154 320.796C588.293 324.217 585.467 327.662 582.677 331.131C579.493 335.097 576.374 339.086 573.32 343.1Z" fill="#464353"/>
<path opacity="0.05" d="M573.32 342.87C570.412 346.664 567.403 351.051 568.122 355.741C568.511 358.277 569.955 360.51 571.017 362.849C572.454 366.017 573.206 369.436 573.945 372.828C575.033 377.802 576.128 382.781 576.793 387.821C577.552 393.525 573.985 410.006 573.656 415.744C573.576 417.127 573.408 418.629 572.427 419.624C572.044 420.012 571.534 420.328 571.359 420.842C571.256 421.337 571.34 421.852 571.594 422.291C573.233 425.921 576.585 428.615 580.326 430.196C584.068 431.777 593.089 433.154 597.166 433.285C597.703 433.343 598.247 433.273 598.751 433.081C599.294 432.761 599.722 432.282 599.973 431.711C602.895 426.231 600.088 407.997 600.128 401.805C600.168 396.641 601.411 391.523 601.182 386.365C600.994 382.228 599.839 378.184 599.456 374.067C598.785 367.302 600.047 360.51 601.317 353.831C602.284 348.713 603.258 343.588 604.501 338.522C605.26 335.433 606.14 332.317 607.859 329.636C609.203 327.508 611.09 325.73 612.655 323.708C617 318.123 618.931 311.086 618.029 304.117C617.935 303.459 607.953 306.601 607.073 306.976C603.484 308.472 600.181 310.557 597.307 313.142C594.996 315.296 593.176 318.181 591.154 320.598C588.293 324.019 585.467 327.467 582.677 330.94C579.493 334.875 576.374 338.852 573.32 342.87Z" fill="black"/>
<path d="M540.958 259.535C549.961 259.535 557.26 252.378 557.26 243.548C557.26 234.719 549.961 227.561 540.958 227.561C531.955 227.561 524.656 234.719 524.656 243.548C524.656 252.378 531.955 259.535 540.958 259.535Z" fill="#FBBEBE"/>
<path d="M555.641 242.876C557.148 245.232 559.122 247.267 561.448 248.858C563.773 250.449 566.401 251.565 569.176 252.138L567.947 256.518C565.824 264.041 563.44 271.998 557.515 277.215C558.187 274.666 557.327 271.945 555.863 269.732C554.399 267.519 552.343 265.78 550.328 264.061L540.945 256.09C540.674 255.874 540.446 255.61 540.273 255.313C540.041 254.751 540.041 254.123 540.273 253.561C541.469 249.911 544.881 247.632 547.662 245.169C549.057 243.895 550.303 242.472 551.376 240.926C553.25 238.305 554.412 240.94 555.641 242.876Z" fill="#FBBEBE"/>
<path d="M519.484 227.475L519.115 224.472C521.687 225.13 524.132 222.983 525.778 220.763C527.423 218.543 528.948 215.928 531.454 214.999C534.496 213.879 537.721 215.658 540.629 217.16C543.885 218.932 547.459 220.072 551.154 220.519C551.744 220.538 552.329 220.631 552.894 220.796C554.788 221.455 555.688 223.787 555.964 225.901C556.239 228.016 556.165 230.262 557.099 232.146C557.771 233.575 559.02 234.636 559.786 236.045C561.801 239.826 559.853 244.997 561.955 248.706L556.73 244.009C556.253 243.581 555.581 243.133 555.05 243.495C554.634 243.785 554.6 244.411 554.432 244.912C553.929 246.374 552.061 246.809 550.711 246.229C549.361 245.649 548.374 244.391 547.353 243.245C545.042 240.571 542.288 238.219 539.064 237.079C537.651 236.561 536.141 236.344 534.636 236.442C533.13 236.539 531.663 236.95 530.332 237.646C527.894 238.996 526.107 242.145 523.118 242.257C519.02 242.409 517.314 234.925 515.42 231.968C516.113 231.456 516.601 230.722 516.797 229.893C516.994 229.065 516.887 228.195 516.495 227.436C516.77 227.324 519.423 227.014 519.484 227.475Z" fill="#464353"/>
<path d="M317.847 134.01C316.537 135.152 315.326 136.399 314.227 137.738C313.12 139.095 312.531 140.789 312.561 142.527C312.567 143.031 312.731 143.521 313.031 143.93C313.185 144.126 313.396 144.27 313.637 144.342C313.878 144.414 314.136 144.41 314.375 144.332C314.644 144.197 314.875 143.998 315.046 143.752C315.756 142.916 316.509 142.115 317.303 141.354C317.592 141.071 317.975 140.775 318.364 140.88C318.539 140.941 318.696 141.043 318.821 141.177C319.273 141.56 319.602 142.063 319.768 142.626C320.003 143.634 319.406 144.641 318.727 145.432C318.049 146.222 317.249 146.98 316.974 147.975C316.87 148.237 316.87 148.529 316.974 148.791C317.104 148.981 317.285 149.132 317.498 149.226C318.46 149.746 319.526 150.051 320.622 150.122C321.718 150.192 322.816 150.026 323.839 149.635C325.182 149.101 326.378 148.185 327.761 147.711C328.361 147.55 328.941 147.33 329.494 147.052C329.89 146.794 330.23 146.461 330.494 146.074C330.758 145.686 330.941 145.251 331.033 144.793C331.207 143.879 331.241 142.944 331.133 142.02C330.966 138.441 330.185 134.916 328.823 131.592C328.744 131.378 328.61 131.187 328.433 131.039C328.231 130.918 327.998 130.856 327.761 130.861C326.042 130.683 323.221 129.82 321.562 130.446C320.981 130.758 320.481 131.195 320.097 131.724C319.788 132.06 317.847 133.568 317.847 134.01Z" fill="#A1616A"/>
<path d="M317.303 132.521C317.303 130.914 315.288 127.034 318.492 126.777C318.492 125.058 316.013 123.991 316.477 122.166C316.625 121.56 317.149 121.066 317.209 120.447C317.411 118.688 314.173 117.733 314.71 116.046C314.912 115.388 315.624 115.006 315.778 114.354C316.141 112.832 313.367 112.153 313.313 110.592C313.313 110.065 313.615 109.571 313.589 109.044C313.589 108.386 313.004 107.885 312.682 107.312C311.842 105.843 312.252 103.57 310.72 102.813C311.735 102.898 312.064 101.423 311.647 100.52C311.231 99.618 310.378 98.8342 310.371 97.8329C310.421 97.4701 310.421 97.1023 310.371 96.7394C310.089 95.7777 308.484 95.6987 308.215 94.7633C308.18 94.4043 308.169 94.0434 308.181 93.683C308.074 92.9386 307.295 92.4644 306.563 92.2536C305.802 92.1269 305.07 91.8705 304.4 91.496C303.93 91.1469 303.385 90.5672 302.882 90.8373C302.694 90.9493 302.6 91.1601 302.459 91.3182C301.854 92.0098 300.699 91.7068 299.94 91.1996C297.696 89.7043 296.581 87.0233 296.104 84.4082C295.627 81.7931 295.641 79.0924 295.043 76.5036C294.861 75.6968 294.618 74.9042 294.318 74.1322C294.062 73.4735 293.243 72.4393 293.189 71.774C293.068 70.2589 296.266 71.2931 297.481 71.4446C298.662 71.5577 299.829 71.7782 300.967 72.1034C302.183 72.5537 303.373 73.066 304.534 73.6382C309.384 75.7395 315.241 75.9964 319.137 79.5271C320.42 80.6865 321.501 82.2081 323.167 82.7351C323.931 82.8787 324.685 83.0701 325.424 83.3082C327.271 84.1579 327.56 86.5622 328.567 88.3013C328.884 88.7605 329.161 89.2453 329.394 89.7504C329.588 90.3461 329.679 90.9696 329.662 91.5948L329.803 96.1598C330.032 103.807 330.26 111.475 329.427 119.077C329.159 121.586 328.756 124.168 329.515 126.579C329.716 127.238 329.998 127.857 330.186 128.523C330.352 129.303 330.438 130.097 330.441 130.894L330.549 133.852C330.586 134.082 330.533 134.317 330.401 134.51C330.289 134.6 330.158 134.663 330.017 134.696C329.876 134.729 329.73 134.731 329.588 134.701C325.39 134.333 321.145 132.014 317.182 133.417" fill="#464353"/>
<path d="M508.885 359.779C536.321 359.779 558.563 356.626 558.563 352.737C558.563 348.848 536.321 345.696 508.885 345.696C481.448 345.696 459.206 348.848 459.206 352.737C459.206 356.626 481.448 359.779 508.885 359.779Z" fill="#504F60"/>
<path d="M551.625 353.08C550.751 349.411 550.207 346.19 550.207 346.19C550.207 346.19 550.409 342.198 548.582 339.201V338.199V330.822C549.102 329.482 549.738 328.188 550.483 326.955C551.826 324.636 550.483 316.139 550.483 316.139C550.483 316.139 545.465 304.157 546.681 296.555C547.897 288.954 536.377 262.802 536.377 262.802C536.448 260.28 536.811 257.774 537.459 255.333C537.582 254.819 537.631 254.292 537.606 253.765C537.606 253.699 537.606 253.64 537.606 253.574C537.606 253.508 537.606 253.613 537.606 253.633C537.432 248.62 533.388 239.227 533.388 239.227L533.932 221.323C533.932 221.323 536.511 210.783 532.307 196.588C530.836 191.641 529.895 187.682 529.297 184.626C529.23 184.283 529.163 183.967 529.109 183.631C537.768 182.314 544.384 181.26 544.384 181.26C544.384 181.26 539.359 160.648 535.967 157.039C532.575 153.429 529.862 142.092 529.862 142.092C529.862 142.092 528.095 127.541 530.95 123.286C533.805 119.03 534.208 111.692 534.208 111.692C534.208 111.692 540.716 107.081 541.536 104.993C542.355 102.905 543.705 98.294 543.705 95.8502C543.705 93.4063 542.893 91.2391 543.161 89.9217C543.43 88.6043 541.26 83.7363 542.349 81.4176C542.63 80.7054 542.776 79.9485 542.778 79.1846C542.781 79.1627 542.781 79.1406 542.778 79.1187C542.788 77.0897 542.597 75.0644 542.207 73.0717C540.325 71.5125 538.127 70.361 535.759 69.6925L535.618 69.1391L535.249 67.69C535.043 67.5563 534.83 67.4332 534.611 67.3211V66.7941L534.55 64.6994L535.571 59.9961C537.586 51.8148 526.443 50.5962 526.443 50.5962C525.767 49.3413 524.643 48.3749 523.286 47.8823C521.049 47.1116 522.916 60.1871 523.957 61.0567C524.743 61.7154 527.175 65.7863 528.35 67.8019L528.538 68.1313C528.354 68.2935 528.184 68.4697 528.028 68.6583L528.451 71.4973L528.518 71.9321C527.78 72.8315 527.18 73.8325 526.738 74.9029C526.738 74.9029 528.753 77.0899 528.37 79.514C527.988 81.938 528.995 85.0142 529.042 85.1789C528.921 85.0406 527.491 83.5255 526.06 83.8944C524.629 84.2633 520.633 85.4424 520.633 85.4424C520.633 85.4424 517.65 85.9562 517.946 86.6018C518.241 87.2473 515.931 90.0798 515.931 90.0798L507.911 82.6231C507.83 82.3991 507.743 82.1752 507.676 81.9644C507.348 80.8893 507.123 79.7867 507.004 78.6708C507.878 78.4671 508.735 78.2007 509.57 77.8737C510.412 77.59 511.173 77.1109 511.786 76.4773C512.599 75.5353 512.754 74.2574 513.083 73.0849C513.714 70.7925 515.098 68.7571 516.058 66.5767C517.685 62.8924 518.209 58.8303 517.57 54.8647C517.446 53.6426 517.025 52.4677 516.34 51.4394C515.031 49.674 512.653 48.956 510.927 47.5463C509.2 46.1367 508.085 43.9827 506.07 42.9353C504.25 41.9802 502.04 42.0921 499.985 42.4215C495.97 43.0707 492.114 44.4466 488.613 46.4792C487.444 47.1379 486.154 47.9481 484.811 47.7044C483.656 47.5002 482.796 46.5978 482.07 45.7283C482.079 45.6923 482.09 45.657 482.104 45.6229C482.071 45.5908 482.042 45.5555 482.017 45.5175C481.167 47.3674 480.74 49.3775 480.767 51.4064C480.767 51.7226 480.767 52.0651 480.808 52.3484V52.6777C480.808 52.77 480.808 52.8622 480.808 52.9478C480.807 53.0882 480.787 53.2279 480.747 53.3628C480.578 53.7658 480.321 54.1277 479.995 54.4234C479.748 54.698 479.524 54.9909 479.323 55.2994C479.323 55.194 479.39 55.0887 479.431 54.9767C478.918 55.7102 478.629 56.5715 478.598 57.4601C478.56 58.1069 478.777 58.7432 479.202 59.2386C479.604 59.6216 480.043 59.9657 480.512 60.2662C480.352 61.1358 480.271 62.0175 480.27 62.9011C480.285 65.5205 480.989 68.0917 482.314 70.3662C483.639 72.6406 485.54 74.5413 487.834 75.8844C487.928 76.1018 488.015 76.3257 488.102 76.5431C489.13 79.178 489.902 82.274 489.56 85.1065C489.56 85.3107 489.499 85.5215 489.466 85.7257C489.432 85.9299 489.264 85.943 489.177 86.055C489.177 86.055 475.924 86.1868 472.808 83.4201C469.691 80.6535 464.935 90.1852 464.935 90.1852C464.935 90.1852 460.187 91.0876 459.233 90.1852C458.279 89.2827 452.724 90.06 452.724 90.06C450.448 88.0751 447.487 87.0152 444.442 87.0958C442.597 85.721 440.562 84.6119 438.397 83.8022L438.249 83.7495C437.293 83.408 436.272 83.2819 435.26 83.3806C435.26 83.3806 428.744 78.1109 426.843 75.2652C424.943 72.4196 415.895 61.913 415.855 61.8669V61.3597L415.754 59.8314C415.485 59.8728 415.213 59.8948 414.941 59.8973C414.894 59.7458 414.827 59.568 414.76 59.3638C414.238 57.8731 413.596 56.4259 412.839 55.036C412.839 55.036 412.839 53.1059 413.41 52.6185C413.98 52.131 413.174 45.0498 413.174 45.0498C413.174 45.0498 407.304 31.5922 402.044 41.6376C402.044 41.6376 392.103 48.1392 400.446 55.7144C400.446 55.7144 403.804 57.2954 404.248 58.5469C404.557 59.3572 405.685 61.6297 406.444 63.158L406.787 63.8167L406.693 63.8957L406.813 65.1605L406.867 65.6479C405.295 66.524 404.227 67.3935 404.489 68.0457C404.952 69.1616 405.27 70.3301 405.436 71.5237C405.436 71.5237 416.976 85.6993 418.467 91.7529C418.467 91.7529 449.412 109.789 459.589 111.073L457.789 120.065C457.526 122.505 457.392 124.956 457.386 127.409C457.52 129.339 456.163 138.1 456.163 138.1C456.163 138.1 454.396 150.985 452.905 152.79C451.414 154.595 451.683 162.321 451.683 162.321C451.331 166.02 450.657 169.683 449.668 173.269C448.177 178.164 449.258 184.224 449.258 184.224C449.258 184.224 444.106 195.817 456.452 187.959C456.452 187.959 462.497 187.59 469.496 187.353C469.496 187.577 469.496 187.807 469.496 188.012C469.496 188.894 469.496 189.849 469.449 190.851C469.355 197.49 469.315 206.66 469.624 213.563C470.168 225.802 473.97 250.023 473.97 250.023V262.216C473.724 263.36 473.603 264.526 473.607 265.694C473.527 269.984 474.691 274.208 476.966 277.874L477.919 285.989C477.919 285.989 480.149 291.338 480.19 294.553C480.181 294.812 480.15 295.07 480.096 295.323C480.009 295.733 479.973 296.151 479.988 296.568C479.861 300.257 482.124 309.084 482.124 309.084C482.124 309.084 482.258 317.97 483.615 318.491C484.777 318.932 482.064 323.609 481.258 324.953C481.236 324.87 481.22 324.787 481.211 324.702L481.043 324.966C480.763 325.685 480.619 326.449 480.62 327.219C480.543 327.825 480.644 328.441 480.91 328.994C481.177 329.546 481.598 330.014 482.124 330.341C484.703 331.889 486.087 333.173 483.897 333.687C483.092 333.81 482.294 333.975 481.506 334.181C481.506 334.082 481.426 333.977 481.392 333.885C481.083 334.003 480.825 334.222 480.663 334.506C480.5 334.789 480.442 335.119 480.499 335.439C480.519 336.484 480.793 337.509 481.298 338.43C483.468 343.199 484.972 345.017 484.972 345.017L486.013 344.905C485.86 345.295 485.657 345.665 485.409 346.005C485.012 346.558 484.487 347.009 483.877 347.323C483.309 347.656 482.675 347.87 482.017 347.948C481.281 347.972 480.559 348.147 479.897 348.463C479.235 348.778 478.648 349.227 478.175 349.78C476.831 351.499 475.971 353.837 478.645 355.893L488.351 359.186C488.351 359.186 505.049 361.314 504.163 357.638C503.276 353.962 502.739 350.748 502.739 350.748C502.81 348.504 502.35 346.274 501.395 344.233C501.22 343.9 501.023 343.579 500.804 343.271L501.395 343.212C501.395 343.212 502.618 335.09 504.243 333.549C504.619 333.193 504.707 332.89 504.619 332.706C504.787 332.264 504.357 332.007 503.813 331.856L503.692 332.179C503.16 332.065 502.618 332.005 502.074 332.001C502.074 332.001 501.529 327.752 503.296 326.204C503.439 326.028 503.543 325.824 503.602 325.607C503.66 325.389 503.673 325.162 503.639 324.939C503.652 324.356 503.589 323.774 503.451 323.207C503.433 323.243 503.413 323.279 503.39 323.312C502.503 319.452 499.494 313.32 499.494 313.32C499.494 313.32 499.36 309.459 500.448 307.911C501.536 306.363 500.307 286.912 500.307 286.912C500.307 286.912 500.717 277.512 499.494 273.131C498.272 268.751 500.985 263.593 500.985 263.593C500.985 263.593 500.985 263.494 500.985 263.316V263.25L500.831 261.768C500.827 261.799 500.827 261.83 500.831 261.86C500.556 259.371 500.038 254.858 499.655 252.777C499.111 249.812 499.796 235.65 499.796 235.65L502.235 229.59L506.581 240.031L511.195 253.943C511.195 253.943 513.479 256.881 513.533 259.871C513.533 260.016 513.533 260.161 513.533 260.306C513.495 260.614 513.478 260.924 513.479 261.235C513.397 262.992 513.889 264.73 514.883 266.195C514.883 266.195 516.105 272.782 518.006 274.435C519.907 276.089 519.907 279.33 519.907 279.33C519.907 279.33 522.211 288.868 523.266 290.528C524.179 291.938 524.226 295.798 524.219 297.003C524.219 297.22 524.219 297.346 524.219 297.346C524.219 297.346 524.542 300.758 524.528 303.617C524.528 303.972 524.528 304.315 524.528 304.638C524.532 304.614 524.532 304.589 524.528 304.565C524.528 305.346 524.433 306.125 524.246 306.884L524.206 307.016C524.206 306.851 524.206 306.693 524.253 306.535C523.781 308.476 523.555 310.467 523.581 312.463C523.521 315.889 524.051 319.946 526.167 322.344C529.835 326.468 532.139 325.954 532.139 325.954C532.139 325.954 530.379 331.105 528.203 332.139C528.12 332.177 528.043 332.226 527.974 332.284C527.974 332.179 527.934 332.08 527.92 331.981C527.678 332.238 527.493 332.542 527.377 332.873C527.261 333.204 527.218 333.556 527.249 333.905C527.094 336.171 528.552 339.833 529.936 341.539C530.449 342.033 531.079 342.394 531.769 342.593C531.66 342.669 531.546 342.737 531.427 342.797C531.185 342.927 530.936 343.044 530.681 343.146C530.328 343.294 529.954 343.389 529.573 343.43C528.836 343.449 528.113 343.622 527.45 343.938C526.787 344.254 526.201 344.705 525.731 345.261C524.387 346.974 523.528 349.312 526.201 351.367L535.907 354.661C535.907 354.661 552.498 356.749 551.625 353.08Z" fill="url(#paint0_linear)"/>
<path d="M487.874 359.166L478.47 355.873C475.877 353.818 476.704 351.479 478.013 349.76C478.464 349.212 479.03 348.764 479.671 348.449C480.313 348.133 481.017 347.955 481.735 347.929C482.371 347.849 482.983 347.636 483.528 347.303C484.124 346.985 484.635 346.534 485.019 345.985C485.705 344.918 486.075 343.684 486.087 342.422C486.087 342.422 496.404 339.458 499.226 342.422C499.729 342.958 500.15 343.564 500.475 344.22C501.412 346.266 501.871 348.492 501.818 350.735C501.818 350.735 502.342 353.949 503.195 357.625C504.048 361.301 487.874 359.166 487.874 359.166Z" fill="#2D293D"/>
<path d="M533.845 354.621L524.441 351.328C521.848 349.272 522.674 346.934 523.984 345.221C524.432 344.671 524.995 344.222 525.637 343.906C526.278 343.59 526.981 343.414 527.699 343.39C528.07 343.353 528.433 343.257 528.774 343.107C529.022 343.004 529.264 342.887 529.499 342.758C532.125 341.341 532.058 337.863 532.058 337.863C532.058 337.863 542.369 334.899 545.197 337.863C545.575 338.265 545.906 338.707 546.184 339.181C547.95 342.178 547.756 346.176 547.756 346.176C547.756 346.176 548.28 349.398 549.099 353.067C549.919 356.736 533.845 354.621 533.845 354.621Z" fill="#2D293D"/>
<path opacity="0.1" d="M499.232 342.415C499.736 342.952 500.157 343.558 500.482 344.214L485.033 345.972C485.719 344.904 486.088 343.671 486.101 342.409C486.101 342.409 496.411 339.451 499.232 342.415Z" fill="black"/>
<path opacity="0.1" d="M546.197 339.194V342.033C543.793 345.913 532.166 345.063 528.787 343.12C529.035 343.017 529.278 342.901 529.512 342.771C532.139 341.355 532.072 337.877 532.072 337.877C532.072 337.877 542.382 334.912 545.21 337.877C545.588 338.278 545.92 338.72 546.197 339.194Z" fill="black"/>
<path d="M548.031 326.955C547.312 328.192 546.699 329.485 546.197 330.822V340.999C543.564 345.248 529.909 343.831 528.062 341.513C526.214 339.194 524.287 333.16 526.362 332.113C528.438 331.065 530.171 325.927 530.171 325.927C530.171 325.927 527.934 326.441 524.387 322.318C520.841 318.194 521.895 309.051 522.554 306.864C523.212 304.677 522.554 297.332 522.554 297.332C522.554 297.332 522.688 292.175 521.64 290.502C520.592 288.828 518.355 279.303 518.355 279.303C518.355 279.303 518.355 276.082 516.515 274.409C514.675 272.736 513.492 266.162 513.492 266.162C512.416 264.519 511.954 262.562 512.183 260.622C512.572 257.401 509.946 253.923 509.946 253.923L505.479 240.004L501.274 229.57L498.91 235.624C498.91 235.624 498.238 249.793 498.782 252.75C499.326 255.708 500.126 263.573 500.126 263.573C500.126 263.573 497.499 268.724 498.681 273.105C499.864 277.485 499.434 286.898 499.434 286.898C499.434 286.898 500.616 306.344 499.561 307.892C498.507 309.44 498.641 313.306 498.641 313.306C498.641 313.306 504.015 324.636 502.322 326.184C500.629 327.732 501.14 331.981 501.14 331.981C501.14 331.981 504.814 331.981 503.242 333.529C501.671 335.077 500.482 343.192 500.482 343.192L484.596 345.017C484.596 345.017 483.145 343.219 481.043 338.43C478.94 333.641 481.432 334.181 483.548 333.661C485.664 333.14 484.327 331.863 481.829 330.315C479.33 328.767 480.781 325.289 480.781 325.289C480.781 325.289 484.589 318.978 483.273 318.464C481.956 317.95 481.829 309.058 481.829 309.058C481.829 309.058 479.202 298.518 479.86 295.659C480.519 292.801 477.758 286.003 477.758 286.003L476.838 277.887C474.027 273.282 473.002 267.838 473.95 262.552V250.036C473.95 250.036 470.269 225.822 469.745 213.583C469.409 205.744 469.503 195.047 469.61 188.374C469.678 184.632 469.745 182.149 469.745 182.149L526.49 176.352C526.49 176.352 526.436 178.921 527.517 184.619C528.102 187.676 529.009 191.634 530.433 196.581C534.503 210.75 532.011 221.31 532.011 221.31L531.48 239.22C531.48 239.22 536.471 251.196 535.423 255.319C534.79 257.768 534.434 260.277 534.362 262.802C534.362 262.802 545.526 288.954 544.343 296.555C543.161 304.157 548.018 316.139 548.018 316.139C548.018 316.139 549.348 324.636 548.031 326.955Z" fill="#464353"/>
<path opacity="0.05" d="M515.588 259.845L532.864 257.585C532.864 257.585 523.078 267.381 515.588 259.845Z" fill="black"/>
<path opacity="0.1" d="M530.365 241.032C530.365 241.032 530.956 247.026 527.215 249.279C527.215 249.279 533.912 248.251 530.365 241.032Z" fill="black"/>
<path opacity="0.1" d="M529.304 221.968C529.304 221.968 514.863 233.628 509.61 232.659C504.357 231.691 529.304 221.968 529.304 221.968Z" fill="black"/>
<path opacity="0.1" d="M494.174 265.312C494.174 265.312 483.206 267.756 482.876 272.077C482.547 276.398 494.174 265.312 494.174 265.312Z" fill="black"/>
<path opacity="0.05" d="M496.586 319.037C496.586 319.037 481.09 321.87 485.489 323.8C489.889 325.73 497.116 327.278 497.116 327.278C497.116 327.278 502.121 327.535 496.586 319.037Z" fill="black"/>
<g opacity="0.05">
<path opacity="0.05" d="M482.359 326.869C481.97 326.631 481.64 326.309 481.394 325.928C481.149 325.547 480.994 325.117 480.942 324.669L480.781 324.939C480.781 324.939 479.337 328.417 481.835 329.959C482.117 330.137 482.393 330.315 482.641 330.486C483.105 330.4 483.602 330.334 484.079 330.216C486.195 329.702 484.858 328.417 482.359 326.869Z" fill="black"/>
<path opacity="0.05" d="M502.322 325.835C502.752 325.453 502.739 324.465 502.477 323.2C501.805 324.195 501.61 325.75 501.597 326.929C501.76 326.519 502.007 326.147 502.322 325.835Z" fill="black"/>
<path opacity="0.05" d="M499.938 261.749C499.367 263.272 499.014 264.866 498.89 266.485C499.189 265.367 499.592 264.277 500.092 263.231L499.938 261.749Z" fill="black"/>
<path opacity="0.05" d="M535.43 254.99C535.533 254.527 535.581 254.054 535.571 253.58C535.376 254.542 535.242 255.431 535.141 256.215C535.228 255.813 535.323 255.431 535.43 254.99Z" fill="black"/>
<path opacity="0.05" d="M499.568 307.549C499.783 307.233 499.904 306.166 499.958 304.684C499.472 305.831 499.214 307.058 499.199 308.3C499.291 308.036 499.415 307.784 499.568 307.549Z" fill="black"/>
<path opacity="0.05" d="M502.792 331.843C501.978 334.427 501.374 337.07 500.985 339.747L485.1 341.546C485.1 341.546 483.649 339.747 481.547 334.958C481.377 334.589 481.227 334.21 481.096 333.825C480.143 334.254 479.753 335.222 481.016 338.048C483.118 342.817 484.576 344.635 484.576 344.635L500.462 342.83C500.462 342.83 501.644 334.715 503.215 333.167C504.022 332.422 503.524 332.034 502.792 331.843Z" fill="black"/>
<path opacity="0.05" d="M481.835 308.709C481.835 308.709 481.963 317.595 483.279 318.108C483.951 316.64 484.388 315.243 483.797 315.013C482.453 314.499 482.353 305.606 482.353 305.606C482.353 305.606 479.726 295.067 480.384 292.208C481.043 289.349 478.282 282.551 478.282 282.551L477.362 274.435C474.551 269.83 473.526 264.386 474.474 259.1V246.585C474.474 246.585 470.793 222.37 470.269 210.131C469.933 202.293 470.027 191.595 470.134 184.922C470.134 183.717 470.175 182.65 470.195 181.747L469.745 181.793C469.745 181.793 469.671 184.27 469.61 188.018C469.503 194.691 469.402 205.389 469.745 213.221C470.269 225.46 473.943 249.681 473.943 249.681V262.196C473 267.481 474.028 272.922 476.838 277.525L477.751 285.64C477.751 285.64 480.512 292.465 479.854 295.304C479.196 298.143 481.835 308.709 481.835 308.709Z" fill="black"/>
<path opacity="0.05" d="M528.599 338.074C527.308 336.242 526.448 334.152 526.08 331.955C524.461 333.391 526.322 338.964 528.095 341.177C529.929 343.496 543.591 344.912 546.231 340.656V338.206C542.651 341.651 530.332 340.268 528.599 338.074Z" fill="black"/>
<path opacity="0.05" d="M548.562 323.517C547.841 324.754 547.226 326.047 546.721 327.383V329.208C547.024 328.549 547.447 327.666 548.065 326.626C548.48 325.611 548.677 324.524 548.642 323.431C548.642 323.431 548.582 323.49 548.562 323.517Z" fill="black"/>
<path opacity="0.05" d="M529.405 325.552C529.904 324.56 530.337 323.536 530.701 322.489C530.701 322.489 528.465 323.003 524.918 318.879C522.339 315.882 522.191 310.217 522.56 306.515C521.889 308.709 520.847 317.852 524.394 321.975C526.711 324.669 528.465 325.381 529.405 325.552Z" fill="black"/>
<path opacity="0.05" d="M522.554 296.983C522.785 299.521 522.873 302.07 522.816 304.618C522.881 304.216 522.971 303.818 523.084 303.426C523.756 301.232 523.084 293.894 523.084 293.894C523.084 293.894 523.219 288.736 522.164 287.063C521.109 285.39 518.913 275.852 518.913 275.852C518.913 275.852 518.913 272.631 517.073 270.957C515.232 269.284 514.05 262.71 514.05 262.71C512.964 261.071 512.49 259.114 512.707 257.17C513.103 253.949 510.476 250.471 510.476 250.471L506.01 236.559L501.805 226.125L499.434 232.185C499.434 232.185 499.434 232.949 499.353 234.161L501.274 229.241L505.479 239.655L509.946 253.567C509.946 253.567 512.572 257.045 512.176 260.266C511.959 262.21 512.434 264.167 513.519 265.806C513.519 265.806 514.701 272.393 516.542 274.053C518.382 275.713 518.376 278.948 518.376 278.948C518.376 278.948 520.612 288.479 521.66 290.146C522.708 291.812 522.554 296.983 522.554 296.983Z" fill="black"/>
</g>
<path d="M533.583 59.9764L532.595 64.6796L532.656 66.7743L532.696 68.3157L527.215 68.8691L526.604 67.7558C525.469 65.7401 523.111 61.6429 522.352 61.0106C521.338 60.1806 519.531 47.0984 521.68 47.8757C523.004 48.3769 524.09 49.3415 524.73 50.583C524.73 50.583 535.524 51.7951 533.583 59.9764Z" fill="#FFCDD3"/>
<path opacity="0.1" d="M532.696 68.3157L527.215 68.869L526.604 67.7558C527.341 66.9327 528.347 66.3858 529.449 66.208C530.551 66.0302 531.682 66.2327 532.649 66.7809L532.696 68.3157Z" fill="black"/>
<path d="M534.08 70.865L526.852 72.5052L526.698 71.4512L526.288 68.6121C526.288 68.6121 529.15 64.8706 533.287 67.6768L533.65 69.1194L534.08 70.865Z" fill="#3FB0AC"/>
<path d="M417.003 60.4902L409.285 64.5479L408.614 63.125C407.881 61.6166 406.787 59.344 406.484 58.514C406.028 57.2624 402.81 55.6815 402.81 55.6815C394.75 48.1128 404.355 41.6047 404.355 41.6047C409.447 31.5592 415.102 45.0169 415.102 45.0169C415.102 45.0169 415.895 52.1113 415.337 52.5855C414.78 53.0598 414.78 55.003 414.78 55.003C415.515 56.3953 416.138 57.8424 416.64 59.3308C416.875 60.0488 417.003 60.4902 417.003 60.4902Z" fill="#FFCDD3"/>
<path opacity="0.1" d="M417.003 60.4901L409.285 64.5478L408.614 63.125C409.702 62.2292 413.564 59.1727 414.834 59.2979C415.439 59.372 416.051 59.3875 416.661 59.344C416.875 60.0488 417.003 60.4901 417.003 60.4901Z" fill="black"/>
<path d="M417.789 62.7759L409.117 66.9654L408.943 65.1407L408.822 63.876C408.822 63.876 413.846 59.6536 415.331 59.8182C416.081 59.9249 416.844 59.9249 417.594 59.8182L417.695 61.3465L417.789 62.7759Z" fill="#3FB0AC"/>
<path d="M512.565 91.2194C512.565 91.2194 474.762 95.4023 481.829 93.1494C486.745 91.5751 488.7 88.5384 489.11 85.1131C489.446 82.2608 488.693 79.1846 487.706 76.5497C486.817 74.2122 485.692 71.968 484.347 69.8505C484.347 69.8505 513.23 54.2653 507.461 68.4343C506.571 70.5774 506.018 72.8407 505.822 75.1466C505.648 77.4382 505.901 79.7416 506.567 81.9446C507.657 85.5192 509.733 88.729 512.565 91.2194Z" fill="#FFCDD3"/>
<path opacity="0.1" d="M507.44 68.4145C506.551 70.5577 505.998 72.8209 505.801 75.1269C503.081 77.3731 500.099 77.2216 496.263 77.2216C493.321 77.2216 490.057 77.9198 487.706 76.53C486.817 74.1925 485.692 71.9482 484.347 69.8308C484.347 69.8308 513.224 54.2455 507.44 68.4145Z" fill="black"/>
<path d="M495.753 78.2097C504.385 78.2097 511.383 71.3469 511.383 62.8813C511.383 54.4157 504.385 47.5529 495.753 47.5529C487.12 47.5529 480.122 54.4157 480.122 62.8813C480.122 71.3469 487.12 78.2097 495.753 78.2097Z" fill="#FFCDD3"/>
<path opacity="0.1" d="M512.565 91.2194C512.565 91.2194 474.762 95.4022 481.829 93.1494C486.745 91.5751 488.7 88.5384 489.11 85.113C490.991 83.1369 494.772 81.6679 497.17 80.9038C499.387 80.1727 501.781 80.1336 504.021 80.7919C504.903 81.0522 505.742 81.4336 506.513 81.9249C507.615 85.5126 509.71 88.7302 512.565 91.2194Z" fill="black"/>
<path opacity="0.1" d="M534.08 70.865L526.852 72.5052L526.698 71.4512C527.472 70.4088 528.554 69.6256 529.798 69.2083C531.042 68.7911 532.387 68.76 533.65 69.1194L534.08 70.865Z" fill="black"/>
<path opacity="0.1" d="M417.789 62.7759L409.117 66.9654L408.943 65.1407C411.752 63.6597 414.671 62.3891 417.675 61.3399L417.789 62.7759Z" fill="black"/>
<path opacity="0.1" d="M527.517 184.632C512.868 186.925 492.045 189.849 488.74 188.861C485.993 188.044 477.234 188.13 469.61 188.387C469.678 184.645 469.745 182.162 469.745 182.162L526.49 176.365C526.49 176.365 526.436 178.934 527.517 184.632Z" fill="black"/>
<path d="M542.12 181.26C542.12 181.26 493.912 189.375 488.74 187.847C483.568 186.319 457.003 187.972 457.003 187.972C445.046 195.831 450.037 184.237 450.037 184.237C450.037 184.237 448.989 178.183 450.433 173.289C451.403 169.696 452.066 166.029 452.415 162.328C452.415 162.328 452.153 154.595 453.597 152.79C455.041 150.985 456.754 138.107 456.754 138.107C456.754 138.107 458.064 129.346 457.936 127.416C457.809 125.486 458.326 120.071 458.326 120.071L460.039 111.053C450.185 109.769 420.234 91.7332 420.234 91.7332C418.79 85.6796 407.626 71.5105 407.626 71.5105C407.464 70.319 407.155 69.1512 406.706 68.0325C405.92 65.9707 417.742 61.8471 417.742 61.8471C417.742 61.8471 426.541 72.3866 428.382 75.2455C430.222 78.1043 436.523 83.3609 436.523 83.3609C437.502 83.2621 438.49 83.3884 439.411 83.7297L439.565 83.7759C441.677 84.5888 443.657 85.6982 445.443 87.0695C448.405 87.0006 451.278 88.0635 453.456 90.0337C453.456 90.0337 458.83 89.2564 459.763 90.1588C460.697 91.0613 465.278 90.1588 465.278 90.1588C465.278 90.1588 469.872 80.6272 472.895 83.3938C475.918 86.1604 488.74 86.0287 488.74 86.0287C490.446 83.8022 494.604 82.2081 497.204 81.4176C499.421 80.6895 501.814 80.6504 504.055 81.3057C505.022 81.5886 505.931 82.0344 506.742 82.6231L514.54 90.093C514.54 90.093 516.77 87.2539 516.508 86.6149C516.246 85.976 519.135 85.4556 519.135 85.4556C519.135 85.4556 522.943 84.2962 524.387 83.9076C525.831 83.519 527.155 85.0538 527.276 85.1921C527.229 85.0274 526.241 81.8985 526.604 79.5271C526.967 77.1557 525.025 74.9161 525.025 74.9161C529.62 63.8364 539.998 73.1112 539.998 73.1112C539.998 73.1112 541.18 79.1648 540.132 81.4835C539.084 83.8022 541.18 88.6965 540.918 89.9876C540.656 91.2787 541.448 93.4656 541.448 95.916C541.448 98.3665 540.105 102.997 539.346 105.059C538.587 107.121 532.253 111.758 532.253 111.758C532.253 111.758 531.857 119.103 529.096 123.352C526.335 127.6 528.068 142.132 528.068 142.132C528.068 142.132 530.695 153.468 533.979 157.078C537.264 160.688 542.12 181.26 542.12 181.26Z" fill="#3F3D56"/>
<path opacity="0.1" d="M471.847 96.4957C471.847 96.4957 470.403 92.247 469.086 91.8847C467.779 91.4132 466.507 90.8542 465.278 90.2115L466.124 88.624C466.124 88.624 471.055 89.9415 471.847 91.3709C472.64 92.8003 471.847 96.4957 471.847 96.4957Z" fill="black"/>
<path opacity="0.1" d="M445.443 87.0958C445.181 88.4132 433.487 89.5396 433.487 89.5396L439.397 83.7297L439.545 83.7824C441.665 84.5997 443.652 85.7159 445.443 87.0958Z" fill="black"/>
<path d="M411.616 70.4434C412.195 70.4434 412.664 69.9833 412.664 69.4158C412.664 68.8483 412.195 68.3882 411.616 68.3882C411.037 68.3882 410.568 68.8483 410.568 69.4158C410.568 69.9833 411.037 70.4434 411.616 70.4434Z" fill="#575988"/>
<path d="M412.959 72.5052C413.538 72.5052 414.007 72.0451 414.007 71.4776C414.007 70.91 413.538 70.45 412.959 70.45C412.381 70.45 411.912 70.91 411.912 71.4776C411.912 72.0451 412.381 72.5052 412.959 72.5052Z" fill="#575988"/>
<path d="M414.276 74.4089C414.855 74.4089 415.324 73.9488 415.324 73.3813C415.324 72.8137 414.855 72.3537 414.276 72.3537C413.697 72.3537 413.228 72.8137 413.228 73.3813C413.228 73.9488 413.697 74.4089 414.276 74.4089Z" fill="#575988"/>
<path d="M415.653 76.4641C416.232 76.4641 416.701 76.004 416.701 75.4365C416.701 74.8689 416.232 74.4089 415.653 74.4089C415.074 74.4089 414.605 74.8689 414.605 75.4365C414.605 76.004 415.074 76.4641 415.653 76.4641Z" fill="#575988"/>
<path d="M539.474 76.1611C539.945 76.1611 540.327 75.7865 540.327 75.3245C540.327 74.8625 539.945 74.4879 539.474 74.4879C539.003 74.4879 538.621 74.8625 538.621 75.3245C538.621 75.7865 539.003 76.1611 539.474 76.1611Z" fill="#575988"/>
<path d="M539.608 78.0648C540.079 78.0648 540.461 77.6902 540.461 77.2282C540.461 76.7662 540.079 76.3916 539.608 76.3916C539.137 76.3916 538.755 76.7662 538.755 77.2282C538.755 77.6902 539.137 78.0648 539.608 78.0648Z" fill="#575988"/>
<path d="M539.722 79.9619C540.193 79.9619 540.575 79.5873 540.575 79.1253C540.575 78.6633 540.193 78.2887 539.722 78.2887C539.251 78.2887 538.869 78.6633 538.869 79.1253C538.869 79.5873 539.251 79.9619 539.722 79.9619Z" fill="#575988"/>
<path opacity="0.1" d="M471.894 131.408C471.767 131.256 501.382 167.927 524.367 146.736C524.387 146.743 488.069 151.571 471.894 131.408Z" fill="black"/>
<path opacity="0.1" d="M454.9 150.471C454.9 150.471 472.62 150.945 474.474 155.945V161.149C473.969 161.423 473.401 161.568 472.824 161.568C472.247 161.568 471.68 161.423 471.175 161.149C469.389 160.2 458.675 154.865 454.9 157.434V150.471Z" fill="black"/>
<path d="M455.229 150.471C455.229 150.471 472.176 150.926 473.95 155.695V160.648C473.467 160.911 472.923 161.049 472.371 161.049C471.819 161.049 471.275 160.911 470.793 160.648C469.086 159.752 458.843 154.661 455.229 157.111V150.471Z" fill="#3F3D56"/>
<path opacity="0.1" d="M464.573 112.74C466.383 116.849 468.69 120.73 471.444 124.3C474.439 128.246 478.069 131.688 482.191 134.491C482.191 134.491 464.868 115.124 464.573 112.74Z" fill="black"/>
<path opacity="0.1" d="M458.776 92.55C458.776 92.55 461.731 105.066 469.348 109.314L458.776 92.55Z" fill="black"/>
<path opacity="0.1" d="M454.242 93.8147C454.168 93.5842 451.616 103.696 464.062 109.314C464.062 109.314 458.776 107.556 454.242 93.8147Z" fill="black"/>
<path opacity="0.1" d="M531.615 85.4227C531.42 85.4227 537.754 89.375 539.48 91.2194C539.48 91.2194 535.356 85.1592 531.615 85.4227Z" fill="black"/>
<path d="M491.528 76.7737C491.53 77.1081 491.603 77.4384 491.742 77.7437C491.882 78.049 492.084 78.3226 492.336 78.5473C492.589 78.7721 492.886 78.943 493.209 79.0493C493.533 79.1555 493.875 79.1949 494.215 79.1648C498.977 79.4547 503.941 79.6589 508.32 77.8474C509.142 77.5599 509.879 77.0806 510.47 76.4509C511.249 75.5089 511.403 74.231 511.719 73.0585C512.337 70.7662 513.654 68.7307 514.601 66.5504C516.203 62.8666 516.74 58.8213 516.152 54.8581C516.028 53.6433 515.619 52.4731 514.957 51.4394C513.694 49.6674 511.39 48.9494 509.717 47.5397C508.045 46.1301 506.97 43.9761 505.016 42.9287C503.256 41.967 501.1 42.0855 499.118 42.4149C495.221 43.064 491.486 44.4391 488.116 46.466C486.981 47.1247 485.738 47.935 484.435 47.6912C483.293 47.4805 482.46 46.5385 481.748 45.6558C480.832 47.7638 480.447 50.0571 480.626 52.3418C480.676 52.6771 480.664 53.0183 480.593 53.3496C480.428 53.7503 480.179 54.1119 479.861 54.4102C478.685 55.7276 477.953 57.8684 479.115 59.2254C479.619 59.8117 480.398 60.1344 480.888 60.7339C481.768 61.8076 481.473 63.3687 481.452 64.7389C481.404 65.2173 481.528 65.6973 481.802 66.0958C482.056 66.3281 482.367 66.4921 482.705 66.5717C483.042 66.6513 483.395 66.644 483.729 66.5504C484.395 66.3538 485.094 66.2889 485.785 66.3593C486.513 66.5916 487.142 67.0551 487.572 67.6768C489.741 70.45 490.601 73.4669 491.528 76.7737Z" fill="#2D293D"/>
<g opacity="0.1">
<path opacity="0.1" d="M511.027 75.285C510.437 75.9146 509.699 76.3939 508.878 76.6814C504.472 78.4797 499.514 78.2755 494.772 77.9989C494.263 78.0039 493.76 77.8934 493.301 77.6761C492.576 77.2611 492.3 76.3916 492.079 75.6011C491.152 72.3076 490.299 69.284 488.096 66.5372C487.671 65.9036 487.042 65.428 486.309 65.1868C485.618 65.1229 484.92 65.1877 484.253 65.3778C483.92 65.4723 483.567 65.4807 483.23 65.4022C482.892 65.3238 482.58 65.1611 482.326 64.9299C482.052 64.5314 481.928 64.0514 481.976 63.5729C481.976 62.1896 482.292 60.6416 481.412 59.5679C480.922 58.9685 480.143 58.6457 479.639 58.0529C479.31 57.6158 479.109 57.0995 479.055 56.559C479.002 56.0185 479.099 55.4739 479.337 54.9832C478.497 56.3007 478.141 57.9541 479.115 59.0871C479.619 59.6733 480.398 59.9961 480.888 60.5955C481.768 61.6758 481.473 63.2304 481.452 64.6005C481.401 65.0783 481.522 65.5586 481.795 65.9575C482.05 66.1909 482.362 66.3555 482.701 66.4352C483.04 66.5148 483.395 66.5069 483.73 66.412C484.395 66.2155 485.094 66.1505 485.785 66.221C486.513 66.4532 487.142 66.9168 487.572 67.5384C489.768 70.2853 490.628 73.3022 491.555 76.609C491.663 77.4227 492.078 78.1674 492.717 78.6971C493.177 78.9147 493.684 79.0231 494.195 79.0133C498.957 79.3031 503.921 79.5139 508.3 77.6959C509.123 77.4103 509.861 76.9307 510.45 76.2994C510.746 75.9283 510.973 75.5092 511.121 75.061C511.128 75.1466 511.081 75.2191 511.027 75.285Z" fill="black"/>
<path opacity="0.1" d="M480.626 52.9478C480.837 52.7231 481 52.4586 481.103 52.1705C481.164 51.8372 481.164 51.496 481.103 51.1627C480.972 49.2846 481.221 47.3997 481.835 45.6163L481.748 45.5175C480.829 47.6223 480.444 49.9142 480.626 52.1969C480.646 52.4468 480.646 52.6979 480.626 52.9478Z" fill="black"/>
</g>
<path opacity="0.1" d="M488.74 86.0616C488.74 86.0616 508.267 88.6043 510.02 85.7257L488.74 86.0616Z" fill="black"/>
<path opacity="0.1" d="M526.698 78.1372C526.698 78.1372 537.553 78.1372 539.937 82.1422L526.698 78.1372Z" fill="black"/>
<path d="M587.426 433.944C584.207 436.767 580.023 438.3 575.705 438.239C574.603 438.239 573.079 438.443 573.072 439.524C573.099 439.84 573.21 440.145 573.394 440.406C574.757 442.634 576.909 444.292 579.44 445.063C581.791 445.762 584.303 445.643 586.754 445.518L593.908 445.156C595.251 445.083 596.595 445.017 597.938 444.853C599.282 444.688 600.746 444.418 602.15 444.194C605.599 443.713 609.088 443.554 612.568 443.72C613.495 443.753 614.583 443.72 615.134 443.061C615.684 442.402 615.402 441.144 615.194 440.156C614.764 438.12 615.194 435.986 614.798 433.944C614.126 430.361 610.962 427.614 607.496 426.316C604.272 425.117 598.563 423.741 595.513 425.743C592.296 427.844 590.328 431.355 587.426 433.944Z" fill="#3F3D56"/>
<path d="M594.533 313.886C595.164 316.831 598.072 319.083 598.153 322.087C598.227 324.498 596.474 326.52 595.211 328.582C594.021 330.718 593.017 332.948 592.209 335.248C589.831 341.239 586.88 346.996 583.396 352.441C581.717 355.076 579.836 357.889 580.219 360.952C580.486 362.384 581.002 363.761 581.744 365.022L586.781 374.837C587.885 376.797 588.748 378.878 589.354 381.036C589.79 382.9 589.831 384.83 590.086 386.727C590.879 392.748 593.76 398.808 592.054 404.644C591.906 405.145 591.382 405.751 590.973 405.402C592.638 408.452 593.975 411.521 593.848 414.98C593.78 416.791 593.216 418.682 593.895 420.368C594.183 421.073 594.687 421.732 594.68 422.489C594.68 422.99 594.445 423.457 594.392 423.945C594.251 425.335 595.554 426.494 596.904 426.935C598.254 427.377 599.725 427.344 601.088 427.746C603.708 428.516 605.582 430.73 607.805 432.264C610.086 433.805 612.775 434.663 615.543 434.735C615.938 434.776 616.337 434.698 616.685 434.511C616.883 434.341 617.041 434.133 617.15 433.899C617.259 433.665 617.316 433.411 617.317 433.154C617.438 431.923 617.249 430.683 616.767 429.541C616.284 428.399 615.523 427.391 614.549 426.606C614.123 426.344 613.769 425.982 613.522 425.552C613.396 425.172 613.364 424.768 613.428 424.373C613.833 418.974 613.734 413.55 613.132 408.169C612.86 406.463 612.773 404.734 612.87 403.011C613.011 401.575 613.454 400.152 613.293 398.723C613.132 397.293 612.386 395.989 611.95 394.612C611.171 392.162 611.386 389.527 611.278 386.964C611.144 382.511 610.103 378.138 609.068 373.79C608.658 372.084 608.208 370.299 606.979 369.034C605.931 367.96 604.239 366.933 604.635 365.503C604.854 364.976 605.181 364.499 605.595 364.1C606.082 363.502 606.439 362.812 606.644 362.074C606.85 361.335 606.9 360.563 606.791 359.805C607.233 359.916 607.7 359.873 608.113 359.683C608.526 359.493 608.859 359.168 609.055 358.765C617.236 354.977 623.832 347.402 626.774 339.003C626.948 338.379 627.215 337.784 627.567 337.238C628.326 336.197 629.642 335.749 630.811 335.176C634.478 333.364 637.011 329.972 639.335 326.652C640.678 324.729 642.022 322.739 642.626 320.473C642.944 319.008 643.095 317.512 643.076 316.014L643.284 308.274C643.33 307.764 643.28 307.251 643.137 306.759C642.937 306.299 642.648 305.883 642.284 305.534C640.05 303.217 637.116 301.665 633.914 301.107C631.765 300.731 629.568 300.804 627.392 300.626C623.174 300.284 619.009 298.999 614.791 299.309C608.161 299.789 602.257 304.295 599.134 310.052C598.039 312.081 596.884 313.847 594.533 313.886Z" fill="#464353"/>
<path d="M557.724 263.56C557.813 264.755 557.648 265.955 557.24 267.084C556.723 268.164 555.426 269.008 554.291 268.566C554.634 267.809 553.727 266.946 552.881 267.038C552.464 267.132 552.078 267.324 551.753 267.597C551.429 267.87 551.178 268.216 551.02 268.606C550.459 269.712 550.271 270.965 550.483 272.183C550.751 273.698 551.645 275.153 551.41 276.675C551.222 277.94 550.275 279.198 550.778 280.37C551.105 280.906 551.515 281.389 551.994 281.8C552.658 282.602 552.982 283.622 552.901 284.652C552.82 285.681 552.339 286.641 551.557 287.333L564.266 287.583C563.803 289.665 564.756 291.793 565.844 293.644C568.892 298.733 573.101 303.06 578.14 306.286C583.179 309.513 588.912 311.55 594.889 312.239C594.566 312.424 594.288 312.677 594.077 312.98C593.866 313.283 593.726 313.629 593.668 313.991C593.609 314.353 593.633 314.724 593.739 315.076C593.844 315.428 594.028 315.753 594.277 316.027C595.312 317.035 597.065 316.91 598.361 316.257C599.658 315.605 600.672 314.525 601.854 313.688C603.941 312.238 606.487 311.566 609.035 311.791C610.627 311.943 612.171 312.45 613.77 312.529C618.472 312.773 622.502 309.453 627.029 308.096C630.327 307.101 634.069 307.101 636.836 305.079C638.032 304.21 639.013 302.78 638.663 301.37C638.374 300.56 637.917 299.818 637.32 299.19C635.728 297.168 634.788 294.737 633.646 292.438C631.383 287.887 628.269 283.793 624.464 280.37C621.591 277.909 618.548 275.646 615.355 273.599C614.583 273.04 613.76 272.553 612.897 272.143C611.782 271.662 610.546 271.432 609.538 270.826C608.047 269.903 607.187 268.276 606.039 266.966C603.52 264.08 599.651 262.756 596.548 260.49C594.466 258.969 592.625 256.966 590.14 256.235C588.931 255.873 587.648 255.846 586.439 255.491C583.692 254.674 581.69 252.283 578.996 251.314C576.867 250.55 574.516 250.748 572.279 250.478C569.758 250.173 567.35 249.273 565.26 247.856C564.587 247.318 563.832 246.887 563.023 246.578C559.618 245.564 559.342 251.782 558.993 253.936C558.543 257.137 557.724 260.319 557.724 263.56Z" fill="#3FB0AC"/>
<path d="M561.042 284.415C561.613 290.488 556.938 296.371 558.301 302.319C558.59 303.584 559.148 304.789 559.349 306.074C559.92 309.598 557.771 312.938 555.722 315.889L538.124 341.216C537.417 342.328 536.573 343.35 535.611 344.26C532.253 347.191 527.202 346.895 522.782 347.764C519.677 348.39 516.745 349.661 514.184 351.492C514.069 351.58 513.993 351.708 513.973 351.85C513.953 351.991 513.99 352.135 514.077 352.25C514.807 353.224 515.773 354.004 516.889 354.519C518.005 355.033 519.234 355.265 520.465 355.194C520.928 355.787 520.465 356.67 519.827 357.098C518.886 357.757 517.583 357.908 517.395 359.483C517.331 360.03 517.444 360.583 517.717 361.064C518.429 362.125 519.531 362.876 520.794 363.158C526.886 364.99 533.469 361.775 538.03 357.408C542.59 353.04 545.862 347.527 550.335 343.087C552.814 340.624 555.628 338.522 558.18 336.138C563.272 331.375 567.235 325.598 571.05 319.808C572.199 318.062 573.361 316.271 573.838 314.248C574.315 312.226 574.093 310.178 574.637 308.221C575.349 305.659 577.263 303.61 578.855 301.463C581.979 297.247 584.068 292.089 583.651 286.892C583.235 281.695 579.957 276.57 574.959 274.804C573.409 274.2 571.703 274.099 570.09 274.514C568.041 275.134 566.53 276.794 565.132 278.388L561.774 282.169C560.956 283.006 560.315 283.993 559.887 285.074C559.67 285.618 559.618 286.212 559.737 286.785C559.856 287.357 560.141 287.884 560.558 288.302" fill="#FBBEBE"/>
<path d="M569.962 259.502C567.651 259.634 565.106 259.858 563.473 261.478C562.789 262.222 562.235 263.073 561.834 263.995C560.249 267.163 558.704 270.477 558.59 274.007C558.496 276.827 559.329 279.587 559.766 282.373C560.128 284.692 559.208 287.056 559.033 289.401C561.902 288.539 565.69 287.366 568.289 285.91C570.063 284.916 571.776 283.783 573.71 283.15C576.471 282.248 581.099 283.809 583.725 285.061C583.866 283.256 582.482 280.107 582.63 278.296C582.651 277.533 582.789 276.778 583.04 276.056C583.433 275.292 583.898 274.567 584.43 273.889C585.43 272.295 585.89 270.431 585.744 268.565C585.598 266.699 584.854 264.926 583.618 263.501C581.287 260.932 577.64 259.97 574.16 259.548C571.969 259.299 569.761 259.224 567.557 259.324" fill="#3FB0AC"/>
<defs>
<linearGradient id="paint0_linear" x1="474.366" y1="359.779" x2="474.366" y2="37.8895" gradientUnits="userSpaceOnUse">
<stop stop-color="#808080" stop-opacity="0.25"/>
<stop offset="0.54" stop-color="#808080" stop-opacity="0.12"/>
<stop offset="1" stop-color="#808080" stop-opacity="0.1"/>
</linearGradient>
</defs>
</svg>
